# Blender v2.74 (sub 0) OBJ File: 'box2.blend'
# www.blender.org
mtllib box2end.mtl
o ĞšÑƒĞ±
v 0.998051 -1.000000 0.638288
v 0.998051 0.997562 0.638288
v 1.017054 -1.000000 0.638288
v 1.017054 0.997562 0.638288
v 0.998051 -1.000000 0.827668
v 0.998051 0.997562 0.827668
v 1.017054 -1.000000 0.827668
v 1.017054 0.997562 0.827668
v 0.998051 -1.000000 -0.638288
v 0.998051 0.997562 -0.638288
v 1.017054 -1.000000 -0.638288
v 1.017054 0.997562 -0.638288
v 0.998051 -1.000000 -0.827668
v 0.998051 0.997562 -0.827668
v 1.017054 -1.000000 -0.827668
v 1.017054 0.997562 -0.827668
v -0.998051 -1.000000 0.638288
v -0.998051 0.997562 0.638288
v -1.017054 -1.000000 0.638288
v -1.017054 0.997562 0.638288
v -0.998051 -1.000000 0.827668
v -0.998051 0.997562 0.827668
v -1.017054 -1.000000 0.827668
v -1.017054 0.997562 0.827668
v -0.998051 -1.000000 -0.638288
v -0.998051 0.997562 -0.638288
v -1.017054 -1.000000 -0.638288
v -1.017054 0.997562 -0.638288
v -0.998051 -1.000000 -0.827668
v -0.998051 0.997562 -0.827668
v -1.017054 -1.000000 -0.827668
v -1.017054 0.997562 -0.827668
v 0.638288 -1.000000 -0.998051
v 0.638288 0.997562 -0.998051
v 0.638288 -1.000000 -1.017054
v 0.638288 0.997562 -1.017054
v 0.827668 -1.000000 -0.998051
v 0.827668 0.997562 -0.998051
v 0.827668 -1.000000 -1.017054
v 0.827668 0.997562 -1.017054
v -0.638288 -1.000000 -0.998051
v -0.638288 0.997562 -0.998051
v -0.638288 -1.000000 -1.017054
v -0.638288 0.997562 -1.017054
v -0.827668 -1.000000 -0.998051
v -0.827668 0.997562 -0.998051
v -0.827668 -1.000000 -1.017054
v -0.827668 0.997562 -1.017054
v 0.638288 -1.000000 0.998051
v 0.638288 0.997562 0.998051
v 0.638288 -1.000000 1.017054
v 0.638288 0.997562 1.017054
v 0.827668 -1.000000 0.998051
v 0.827668 0.997562 0.998051
v 0.827668 -1.000000 1.017054
v 0.827668 0.997562 1.017054
v -0.638288 -1.000000 0.998051
v -0.638288 0.997562 0.998051
v -0.638288 -1.000000 1.017054
v -0.638288 0.997562 1.017054
v -0.827668 -1.000000 0.998051
v -0.827668 0.997562 0.998051
v -0.827668 -1.000000 1.017054
v -0.827668 0.997562 1.017054
v 0.637610 0.999599 1.017518
v 0.637610 1.015346 1.017518
v 0.637610 0.999599 -1.017121
v 0.637610 1.015346 -1.017121
v 0.827847 0.999599 1.017518
v 0.827847 1.015346 1.017518
v 0.827847 0.999599 -1.017121
v 0.827847 1.015346 -1.017121
v -0.637610 0.999599 1.017518
v -0.637610 1.015346 1.017518
v -0.637610 0.999599 -1.017121
v -0.637610 1.015346 -1.017121
v -0.827847 0.999599 1.017518
v -0.827847 1.015346 1.017518
v -0.827847 0.999599 -1.017121
v -0.827847 1.015346 -1.017121
v 0.637610 -0.999599 1.017518
v 0.637610 -1.015346 1.017518
v 0.637610 -0.999599 -1.017121
v 0.637610 -1.015346 -1.017121
v 0.827847 -0.999599 1.017518
v 0.827847 -1.015346 1.017518
v 0.827847 -0.999599 -1.017121
v 0.827847 -1.015346 -1.017121
v -0.637610 -0.999599 1.017518
v -0.637610 -1.015346 1.017518
v -0.637610 -0.999599 -1.017121
v -0.637610 -1.015346 -1.017121
v -0.827847 -0.999599 1.017518
v -0.827847 -1.015346 1.017518
v -0.827847 -0.999599 -1.017121
v -0.827847 -1.015346 -1.017121
v -1.000000 -1.000000 1.000000
v -1.000000 1.000000 1.000000
v -1.000000 -1.000000 -1.000000
v -1.000000 1.000000 -1.000000
v 1.000000 -1.000000 1.000000
v 1.000000 1.000000 1.000000
v 1.000000 -1.000000 -1.000000
v 1.000000 1.000000 -1.000000
v 0.998051 -1.000000 0.638288
v 0.998051 -1.000000 0.638288
v 0.998051 0.997562 0.638288
v 0.998051 0.997562 0.638288
v 1.017054 0.997562 0.638288
v 1.017054 0.997562 0.638288
v 1.017054 -1.000000 0.638288
v 1.017054 -1.000000 0.638288
v 1.017054 0.997562 0.827668
v 1.017054 0.997562 0.827668
v 1.017054 -1.000000 0.827668
v 1.017054 -1.000000 0.827668
v 0.998051 0.997562 0.827668
v 0.998051 0.997562 0.827668
v 0.998051 -1.000000 0.827668
v 0.998051 -1.000000 0.827668
v 0.998051 -1.000000 -0.638288
v 0.998051 -1.000000 -0.638288
v 0.998051 0.997562 -0.638288
v 0.998051 0.997562 -0.638288
v 1.017054 0.997562 -0.638288
v 1.017054 0.997562 -0.638288
v 1.017054 -1.000000 -0.638288
v 1.017054 -1.000000 -0.638288
v 1.017054 0.997562 -0.827668
v 1.017054 0.997562 -0.827668
v 1.017054 -1.000000 -0.827668
v 1.017054 -1.000000 -0.827668
v 0.998051 0.997562 -0.827668
v 0.998051 0.997562 -0.827668
v 0.998051 -1.000000 -0.827668
v 0.998051 -1.000000 -0.827668
v -0.998051 -1.000000 0.638288
v -0.998051 -1.000000 0.638288
v -0.998051 0.997562 0.638288
v -0.998051 0.997562 0.638288
v -1.017054 0.997562 0.638288
v -1.017054 0.997562 0.638288
v -1.017054 -1.000000 0.638288
v -1.017054 -1.000000 0.638288
v -1.017054 0.997562 0.827668
v -1.017054 0.997562 0.827668
v -1.017054 -1.000000 0.827668
v -1.017054 -1.000000 0.827668
v -0.998051 0.997562 0.827668
v -0.998051 0.997562 0.827668
v -0.998051 -1.000000 0.827668
v -0.998051 -1.000000 0.827668
v -0.998051 -1.000000 -0.638288
v -0.998051 -1.000000 -0.638288
v -0.998051 0.997562 -0.638288
v -0.998051 0.997562 -0.638288
v -1.017054 0.997562 -0.638288
v -1.017054 0.997562 -0.638288
v -1.017054 -1.000000 -0.638288
v -1.017054 -1.000000 -0.638288
v -1.017054 0.997562 -0.827668
v -1.017054 0.997562 -0.827668
v -1.017054 -1.000000 -0.827668
v -1.017054 -1.000000 -0.827668
v -0.998051 0.997562 -0.827668
v -0.998051 0.997562 -0.827668
v -0.998051 -1.000000 -0.827668
v -0.998051 -1.000000 -0.827668
v 0.638288 -1.000000 -0.998051
v 0.638288 -1.000000 -0.998051
v 0.638288 0.997562 -0.998051
v 0.638288 0.997562 -0.998051
v 0.638288 0.997562 -1.017054
v 0.638288 0.997562 -1.017054
v 0.638288 -1.000000 -1.017054
v 0.638288 -1.000000 -1.017054
v 0.827668 0.997562 -1.017054
v 0.827668 0.997562 -1.017054
v 0.827668 -1.000000 -1.017054
v 0.827668 -1.000000 -1.017054
v 0.827668 0.997562 -0.998051
v 0.827668 0.997562 -0.998051
v 0.827668 -1.000000 -0.998051
v 0.827668 -1.000000 -0.998051
v -0.638288 -1.000000 -0.998051
v -0.638288 -1.000000 -0.998051
v -0.638288 0.997562 -0.998051
v -0.638288 0.997562 -0.998051
v -0.638288 0.997562 -1.017054
v -0.638288 0.997562 -1.017054
v -0.638288 -1.000000 -1.017054
v -0.638288 -1.000000 -1.017054
v -0.827668 0.997562 -1.017054
v -0.827668 0.997562 -1.017054
v -0.827668 -1.000000 -1.017054
v -0.827668 -1.000000 -1.017054
v -0.827668 0.997562 -0.998051
v -0.827668 0.997562 -0.998051
v -0.827668 -1.000000 -0.998051
v -0.827668 -1.000000 -0.998051
v 0.638288 -1.000000 0.998051
v 0.638288 -1.000000 0.998051
v 0.638288 0.997562 0.998051
v 0.638288 0.997562 0.998051
v 0.638288 0.997562 1.017054
v 0.638288 0.997562 1.017054
v 0.638288 -1.000000 1.017054
v 0.638288 -1.000000 1.017054
v 0.827668 0.997562 1.017054
v 0.827668 0.997562 1.017054
v 0.827668 -1.000000 1.017054
v 0.827668 -1.000000 1.017054
v 0.827668 0.997562 0.998051
v 0.827668 0.997562 0.998051
v 0.827668 -1.000000 0.998051
v 0.827668 -1.000000 0.998051
v -0.638288 -1.000000 0.998051
v -0.638288 -1.000000 0.998051
v -0.638288 0.997562 0.998051
v -0.638288 0.997562 0.998051
v -0.638288 0.997562 1.017054
v -0.638288 0.997562 1.017054
v -0.638288 -1.000000 1.017054
v -0.638288 -1.000000 1.017054
v -0.827668 0.997562 1.017054
v -0.827668 0.997562 1.017054
v -0.827668 -1.000000 1.017054
v -0.827668 -1.000000 1.017054
v -0.827668 0.997562 0.998051
v -0.827668 0.997562 0.998051
v -0.827668 -1.000000 0.998051
v -0.827668 -1.000000 0.998051
v 0.637610 0.999599 1.017518
v 0.637610 0.999599 1.017518
v 0.637610 1.015346 1.017518
v 0.637610 1.015346 1.017518
v 0.637610 1.015346 -1.017121
v 0.637610 1.015346 -1.017121
v 0.637610 0.999599 -1.017121
v 0.637610 0.999599 -1.017121
v 0.827847 1.015346 -1.017121
v 0.827847 1.015346 -1.017121
v 0.827847 0.999599 -1.017121
v 0.827847 0.999599 -1.017121
v 0.827847 1.015346 1.017518
v 0.827847 1.015346 1.017518
v 0.827847 0.999599 1.017518
v 0.827847 0.999599 1.017518
v -0.637610 0.999599 1.017518
v -0.637610 0.999599 1.017518
v -0.637610 1.015346 1.017518
v -0.637610 1.015346 1.017518
v -0.637610 1.015346 -1.017121
v -0.637610 1.015346 -1.017121
v -0.637610 0.999599 -1.017121
v -0.637610 0.999599 -1.017121
v -0.827847 1.015346 -1.017121
v -0.827847 1.015346 -1.017121
v -0.827847 0.999599 -1.017121
v -0.827847 0.999599 -1.017121
v -0.827847 1.015346 1.017518
v -0.827847 1.015346 1.017518
v -0.827847 0.999599 1.017518
v -0.827847 0.999599 1.017518
v 0.637610 -0.999599 1.017518
v 0.637610 -0.999599 1.017518
v 0.637610 -1.015346 1.017518
v 0.637610 -1.015346 1.017518
v 0.637610 -1.015346 -1.017121
v 0.637610 -1.015346 -1.017121
v 0.637610 -0.999599 -1.017121
v 0.637610 -0.999599 -1.017121
v 0.827847 -1.015346 -1.017121
v 0.827847 -1.015346 -1.017121
v 0.827847 -0.999599 -1.017121
v 0.827847 -0.999599 -1.017121
v 0.827847 -1.015346 1.017518
v 0.827847 -1.015346 1.017518
v 0.827847 -0.999599 1.017518
v 0.827847 -0.999599 1.017518
v -0.637610 -0.999599 1.017518
v -0.637610 -0.999599 1.017518
v -0.637610 -1.015346 1.017518
v -0.637610 -1.015346 1.017518
v -0.637610 -1.015346 -1.017121
v -0.637610 -1.015346 -1.017121
v -0.637610 -0.999599 -1.017121
v -0.637610 -0.999599 -1.017121
v -0.827847 -1.015346 -1.017121
v -0.827847 -1.015346 -1.017121
v -0.827847 -0.999599 -1.017121
v -0.827847 -0.999599 -1.017121
v -0.827847 -1.015346 1.017518
v -0.827847 -1.015346 1.017518
v -0.827847 -0.999599 1.017518
v -0.827847 -0.999599 1.017518
v -1.000000 -1.000000 1.000000
v -1.000000 -1.000000 1.000000
v -1.000000 1.000000 1.000000
v -1.000000 1.000000 1.000000
v -1.000000 1.000000 -1.000000
v -1.000000 1.000000 -1.000000
v -1.000000 -1.000000 -1.000000
v -1.000000 -1.000000 -1.000000
v 1.000000 1.000000 -1.000000
v 1.000000 1.000000 -1.000000
v 1.000000 -1.000000 -1.000000
v 1.000000 -1.000000 -1.000000
v 1.000000 1.000000 1.000000
v 1.000000 1.000000 1.000000
v 1.000000 -1.000000 1.000000
v 1.000000 -1.000000 1.000000
vt 0.780346 0.714003
vt 0.776263 0.713970
vt 0.776263 0.480017
vt 0.780346 0.480049
vt 0.754083 0.713970
vt 0.754083 0.480017
vt 0.750000 0.713938
vt 0.750000 0.479984
vt 0.828443 0.488495
vt 0.804789 0.488495
vt 0.804789 0.238996
vt 0.828443 0.238996
vt 0.776263 0.477791
vt 0.754083 0.477791
vt 0.754083 0.716196
vt 0.776263 0.716196
vt 0.750000 0.236399
vt 0.750000 0.002448
vt 0.754083 0.002423
vt 0.754083 0.236374
vt 0.776263 0.002423
vt 0.776263 0.236374
vt 0.780346 0.002398
vt 0.780346 0.236349
vt 0.828837 0.488495
vt 0.828837 0.238996
vt 0.852491 0.238996
vt 0.852491 0.488495
vt 0.754083 0.000197
vt 0.776263 0.000197
vt 0.776263 0.238600
vt 0.754083 0.238600
vt 0.811087 0.236409
vt 0.807004 0.236376
vt 0.807004 0.002423
vt 0.811087 0.002455
vt 0.784824 0.236376
vt 0.784824 0.002423
vt 0.780741 0.236344
vt 0.780741 0.002390
vt 0.804394 0.488495
vt 0.780741 0.488495
vt 0.780741 0.238996
vt 0.804394 0.238996
vt 0.807004 0.000197
vt 0.784824 0.000197
vt 0.784824 0.238602
vt 0.807004 0.238602
vt 0.750000 0.475196
vt 0.750000 0.241245
vt 0.754083 0.241220
vt 0.754083 0.475171
vt 0.776263 0.241220
vt 0.776263 0.475171
vt 0.780346 0.241195
vt 0.780346 0.475146
vt 0.780741 0.738387
vt 0.780741 0.488889
vt 0.804394 0.488889
vt 0.804394 0.738387
vt 0.754083 0.238994
vt 0.776263 0.238994
vt 0.776263 0.477397
vt 0.754083 0.477397
vt 0.252208 0.776002
vt 0.486557 0.776001
vt 0.486586 0.780092
vt 0.252237 0.780092
vt 0.486557 0.754090
vt 0.488371 0.754090
vt 0.488371 0.776001
vt 0.252208 0.754090
vt 0.252179 0.750000
vt 0.486529 0.750000
vt 0.250394 0.776002
vt 0.250394 0.754090
vt 0.504918 0.780486
vt 0.759047 0.780486
vt 0.759047 0.804247
vt 0.504918 0.804247
vt 0.490579 0.754090
vt 0.490619 0.750000
vt 0.724971 0.750000
vt 0.724931 0.754090
vt 0.726745 0.754090
vt 0.726745 0.776001
vt 0.724931 0.776001
vt 0.724891 0.780091
vt 0.490539 0.780091
vt 0.490579 0.776001
vt 0.488765 0.776001
vt 0.488765 0.754090
vt 0.250394 0.804247
vt 0.250394 0.780486
vt 0.504523 0.780486
vt 0.504523 0.804247
vt 0.250000 0.250000
vt 0.250000 0.499803
vt 0.000197 0.499803
vt 0.000197 0.250000
vt 0.499803 0.499803
vt 0.499803 0.749606
vt 0.250000 0.749606
vt 0.499803 0.250000
vt 0.749606 0.250000
vt 0.749606 0.499803
vt 0.250000 0.000197
vt 0.499803 0.000197
vt 0.000197 0.999803
vt 0.000197 0.750000
vt 0.250000 0.750000
vt 0.250000 0.999803
vn 0.000000 0.000000 -1.000000
vn 1.000000 0.000000 0.000000
vn 0.000000 0.000000 1.000000
vn -1.000000 0.000000 0.000000
vn 0.000000 -1.000000 0.000000
vn 0.000000 1.000000 0.000000
usemtl None
s 1
f 2/1/1 4/2/1 3/3/1 1/4/1
f 109/2/2 8/5/2 7/6/2 111/3/2
f 113/5/3 6/7/3 5/8/3 115/6/3
f 117/9/4 107/10/4 105/11/4 119/12/4
f 106/13/5 112/3/5 116/6/5 120/14/5
f 118/15/6 114/5/6 110/2/6 108/16/6
f 10/17/3 9/18/3 11/19/3 12/20/3
f 125/20/2 127/19/2 15/21/2 16/22/2
f 129/22/1 131/21/1 13/23/1 14/24/1
f 133/25/4 135/26/4 121/27/4 123/28/4
f 122/29/5 136/30/5 132/21/5 128/19/5
f 134/31/6 124/32/6 126/20/6 130/22/6
f 18/1/1 17/4/1 19/3/1 20/2/1
f 141/2/4 143/3/4 23/6/4 24/5/4
f 145/5/3 147/6/3 21/8/3 22/7/3
f 149/9/2 151/12/2 137/11/2 139/10/2
f 138/13/5 152/14/5 148/6/5 144/3/5
f 150/15/6 140/16/6 142/2/6 146/5/6
f 26/17/3 28/20/3 27/19/3 25/18/3
f 157/20/4 32/22/4 31/21/4 159/19/4
f 161/22/1 30/24/1 29/23/1 163/21/1
f 165/25/2 155/28/2 153/27/2 167/26/2
f 154/29/5 160/19/5 164/21/5 168/30/5
f 166/31/6 162/22/6 158/20/6 156/32/6
f 34/33/4 36/34/4 35/35/4 33/36/4
f 173/34/1 40/37/1 39/38/1 175/35/1
f 177/37/2 38/39/2 37/40/2 179/38/2
f 181/41/3 171/42/3 169/43/3 183/44/3
f 170/45/5 176/35/5 180/38/5 184/46/5
f 182/47/6 178/37/6 174/34/6 172/48/6
f 42/49/2 41/50/2 43/51/2 44/52/2
f 189/52/1 191/51/1 47/53/1 48/54/1
f 193/54/4 195/53/4 45/55/4 46/56/4
f 197/57/3 199/58/3 185/59/3 187/60/3
f 186/61/5 200/62/5 196/53/5 192/51/5
f 198/63/6 188/64/6 190/52/6 194/54/6
f 50/33/4 49/36/4 51/35/4 52/34/4
f 205/34/3 207/35/3 55/38/3 56/37/3
f 209/37/2 211/38/2 53/40/2 54/39/2
f 213/41/1 215/44/1 201/43/1 203/42/1
f 202/45/5 216/46/5 212/38/5 208/35/5
f 214/47/6 204/48/6 206/34/6 210/37/6
f 58/49/2 60/52/2 59/51/2 57/50/2
f 221/52/3 64/54/3 63/53/3 223/51/3
f 225/54/4 62/56/4 61/55/4 227/53/4
f 229/57/1 219/60/1 217/59/1 231/58/1
f 218/61/5 224/51/5 228/53/5 232/62/5
f 230/63/6 226/54/6 222/52/6 220/64/6
f 66/65/4 68/66/4 67/67/4 65/68/4
f 237/66/1 72/69/1 71/70/1 239/71/1
f 241/69/2 70/72/2 69/73/2 243/74/2
f 245/72/3 235/65/3 233/75/3 247/76/3
f 234/77/5 240/78/5 244/79/5 248/80/5
f 246/72/6 242/69/6 238/66/6 236/65/6
f 74/81/2 73/82/2 75/83/2 76/84/2
f 253/84/1 255/85/1 79/86/1 80/87/1
f 257/87/4 259/88/4 77/89/4 78/90/4
f 261/90/3 263/91/3 249/92/3 251/81/3
f 250/93/5 264/94/5 260/95/5 256/96/5
f 262/90/6 252/81/6 254/84/6 258/87/6
f 82/65/4 81/68/4 83/67/4 84/66/4
f 269/66/1 271/71/1 87/70/1 88/69/1
f 273/69/2 275/74/2 85/73/2 86/72/2
f 277/72/3 279/76/3 265/75/3 267/65/3
f 266/77/6 280/80/6 276/79/6 272/78/6
f 278/72/5 268/65/5 270/66/5 274/69/5
f 90/81/2 92/84/2 91/83/2 89/82/2
f 285/84/1 96/87/1 95/86/1 287/85/1
f 289/87/4 94/90/4 93/89/4 291/88/4
f 293/90/3 283/81/3 281/92/3 295/91/3
f 282/93/6 288/96/6 292/95/6 296/94/6
f 294/90/5 290/87/5 286/84/5 284/81/5
f 98/97/4 100/98/4 99/99/4 97/100/4
f 301/98/1 104/101/1 103/102/1 303/103/1
f 305/101/2 102/104/2 101/105/2 307/106/2
f 309/104/3 299/97/3 297/107/3 311/108/3
f 298/109/5 304/110/5 308/111/5 312/112/5
f 310/104/6 306/101/6 302/98/6 300/97/6
